<?xml version="1.0" encoding="UTF-8" standalone="no"?>
<!DOCTYPE svg PUBLIC "-//W3C//DTD SVG 1.1//EN" "http://www.w3.org/Graphics/SVG/1.1/DTD/svg11.dtd">
<svg version="1.1" xmlns="http://www.w3.org/2000/svg" xmlns:xlink="http://www.w3.org/1999/xlink" preserveAspectRatio="xMidYMid meet" viewBox="0 0 640 640" width="640" height="640"><defs><path d="M520.01 465.39C520.01 473.67 513.3 480.39 505.01 480.39C484.01 480.39 316.01 480.39 295.01 480.39C286.73 480.39 280.01 473.67 280.01 465.39C280.01 448.39 280.01 312.39 280.01 295.39C280.01 287.11 286.73 280.39 295.01 280.39C316.01 280.39 484.01 280.39 505.01 280.39C513.3 280.39 520.01 287.11 520.01 295.39C520.01 329.39 520.01 448.39 520.01 465.39Z" id="cnt1gaUZu"></path><path d="M625 120C633.28 120 640 113.28 640 105C640 100 640 60 640 55C640 46.72 633.28 40 625 40C620 40 580 40 575 40C566.72 40 560 46.72 560 55C560 56.67 560 65 560 80L80 80C80 65 80 56.67 80 55C80 46.72 73.28 40 65 40C60 40 20 40 15 40C6.72 40 0 46.72 0 55C0 60 0 100 0 105C0 113.28 6.72 120 15 120C16.67 120 25 120 40 120L40 520C25 520 16.67 520 15 520C6.72 520 0 526.72 0 535C0 540 0 580 0 585C0 593.28 6.72 600 15 600C20 600 60 600 65 600C73.28 600 80 593.28 80 585C80 583.33 80 575 80 560L560 560C560 575 560 583.33 560 585C560 593.28 566.72 600 575 600C580 600 620 600 625 600C633.28 600 640 593.28 640 585C640 580 640 540 640 535C640 526.72 633.28 520 625 520C623.33 520 615 520 600 520L600 120C613.33 120 621.67 120 625 120ZM520 465C520 473.28 513.28 480 505 480C484 480 316 480 295 480C286.72 480 280 473.28 280 465C280 458 280 423 280 360C193 360 144.67 360 135 360C126.72 360 120 353.28 120 345C120 328 120 192 120 175C120 166.72 126.72 160 135 160C156 160 324 160 345 160C353.28 160 360 166.72 360 175C360 182 360 217 360 280C447 280 495.33 280 505 280C513.28 280 520 286.72 520 295C520 329 520 431 520 465Z" id="dHUthkENt"></path><path d="M360 345C360 353.28 353.28 360 345 360C324 360 156 360 135 360C126.72 360 120 353.28 120 345C120 328 120 192 120 175C120 166.72 126.72 160 135 160C156 160 324 160 345 160C353.28 160 360 166.72 360 175C360 209 360 328 360 345Z" id="g2msUXz9iY"></path></defs><g><g><g><use xlink:href="#cnt1gaUZu" opacity="1" fill="#40495b" fill-opacity="1"></use><g><use xlink:href="#cnt1gaUZu" opacity="1" fill-opacity="0" stroke="#000000" stroke-width="1" stroke-opacity="0"></use></g></g><g><use xlink:href="#dHUthkENt" opacity="1" fill="#adbabe" fill-opacity="1"></use><g><use xlink:href="#dHUthkENt" opacity="1" fill-opacity="0" stroke="#000000" stroke-width="1" stroke-opacity="0"></use></g></g><g><use xlink:href="#g2msUXz9iY" opacity="1" fill="#ffffff" fill-opacity="1"></use><g><use xlink:href="#g2msUXz9iY" opacity="1" fill-opacity="0" stroke="#000000" stroke-width="1" stroke-opacity="0"></use></g></g></g></g></svg>